# xmcd CD database file
#
# Track frame offsets:
#	150
#	21167
#	46142
#	66568
#	84654
#	100367
#	124770
#	147899
#	164051
#	182146
#	190142
#	204716
#	217175
#	230949
#	248424
#
# Disc length: 3635 seconds
#
# Revision: 0
# Processed by: cddbd v1.5.1PL2 Copyright (c) Steve Scherf et al.
# Submitted via: CDex 1.51
#
DISCID=e70e310f
DTITLE=The Sonny Monk Society Jazz Band - Live!
DYEAR=2004
DGENRE=Jazz
TTITLE0=Everybody Loves My Babe
TTITLE1=Apex Blues
TTITLE2=The Battle Hymn Of The Republic
TTITLE3=I'm Forever Blowing Bubbles
TTITLE4=Over the Rainbow
TTITLE5=China Boy
TTITLE6=Out of Nowhere
TTITLE7=The World is Waiting For The Sunrise
TTITLE8=April Showers
TTITLE9=Lazybones
TTITLE10=Hello Dolly
TTITLE11=Blue Turning Gray Over You
TTITLE12=Bei Mir Bis Du Schon
TTITLE13=When You And I Were Young Maggie
TTITLE14=Basin St Blues
EXTD=YEAR: 2004
EXTT0=
EXTT1=
EXTT2=
EXTT3=
EXTT4=
EXTT5=
EXTT6=
EXTT7=
EXTT8=
EXTT9=
EXTT10=
EXTT11=
EXTT12=
EXTT13=
EXTT14=
PLAYORDER=
